# xmcd CD database file generated by Grip 3.2.0
# 
# Track frame offsets:
#       182
#       11152
#       29375
#       40605
#       55265
#       73172
#       87377
#       101935
#       114325
#       133017
#       147030
#       165840
# 
# Disc length: 2476 seconds
# 
# Revision: 4
# Processed by: cddbd v1.5.2PL0 Copyright (c) Steve Scherf et al.
# Submitted via: Grip 3.2.0
# 
DISCID=9e09aa0c
DTITLE=Lyle Lovett - Lyle Lovett And His Large Band
DYEAR=1989
DGENRE=Pop
TTITLE0=The Blues Walk
TTITLE1=Here I Am
TTITLE2=Cryin' Shame
TTITLE3=Good Intentions
TTITLE4=I Know You Know
TTITLE5=What Do You Do/The Glory Of Love
TTITLE6=I  Married Her Just Because She Looks Like You
TTITLE7=Stand By Your Man
TTITLE8=Which Way Does That Old Pony Run
TTITLE9=Nobody Knows Me
TTITLE10=If You Were To Wake Up
TTITLE11=Once Is Enough
EXTD=
EXTT0=
EXTT1=
EXTT2=
EXTT3=
EXTT4=
EXTT5=
EXTT6=
EXTT7=
EXTT8=
EXTT9=
EXTT10=
EXTT11=
PLAYORDER=
